<?xml version="1.0" encoding="UTF-8"?>
<svg xmlns="http://www.w3.org/2000/svg" xmlns:xlink="http://www.w3.org/1999/xlink" width="300px" height="300px" viewBox="0 0 300 300" version="1.1">
<g id="surface1">
<path style=" stroke:none;fill-rule:nonzero;fill:rgb(66.666667%,69.411765%,72.941176%);fill-opacity:1;" d="M 135 297.457031 L 165.507812 297.457031 L 165.507812 155.085938 L 135 155.085938 Z M 84.152344 297.457031 L 114.660156 297.457031 L 114.660156 175.421875 L 84.152344 175.421875 Z M 186.355469 297.457031 L 216.355469 297.457031 L 216.355469 185.59375 L 186.355469 185.59375 Z M 33.304688 297.457031 L 63.8125 297.457031 L 63.8125 216.101562 L 33.304688 216.101562 Z M 33.304688 297.457031 "/>
<path style=" stroke:none;fill-rule:nonzero;fill:rgb(100%,87.843137%,47.45098%);fill-opacity:1;" d="M 68.898438 2.542969 C 105.507812 2.542969 135 32.035156 135 68.644531 C 135 105.253906 105.507812 134.746094 68.898438 134.746094 C 32.289062 134.746094 2.796875 105.253906 2.796875 68.644531 C 2.796875 32.035156 32.289062 2.542969 68.898438 2.542969 "/>
<path style=" stroke:none;fill-rule:nonzero;fill:rgb(49.411765%,88.235294%,90.196078%);fill-opacity:1;" d="M 292.625 43.21875 L 267.203125 43.21875 L 267.203125 297.457031 L 236.695312 297.457031 L 236.695312 43.21875 L 211.269531 43.21875 L 251.949219 2.542969 Z M 292.625 43.21875 "/>
<path style=" stroke:none;fill-rule:nonzero;fill:rgb(31.764706%,33.72549%,37.254902%);fill-opacity:1;" d="M 297.710938 300 L 2.796875 300 C 1.269531 300 0.253906 298.984375 0.253906 297.457031 C 0.253906 295.933594 1.269531 294.914062 2.796875 294.914062 L 30.761719 294.914062 L 30.761719 216.101562 C 30.761719 214.578125 31.78125 213.558594 33.304688 213.558594 L 63.8125 213.558594 C 65.339844 213.558594 66.355469 214.578125 66.355469 216.101562 L 66.355469 294.914062 L 81.609375 294.914062 L 81.609375 175.421875 C 81.609375 173.898438 82.628906 172.882812 84.152344 172.882812 L 114.660156 172.882812 C 116.1875 172.882812 117.203125 173.898438 117.203125 175.421875 L 117.203125 294.914062 L 132.457031 294.914062 L 132.457031 155.085938 C 132.457031 153.558594 133.476562 152.542969 135 152.542969 L 165.507812 152.542969 C 167.035156 152.542969 168.050781 153.558594 168.050781 155.085938 L 168.050781 294.914062 L 183.8125 294.914062 L 183.8125 185.59375 C 183.8125 184.066406 184.832031 183.050781 186.355469 183.050781 L 216.355469 183.050781 C 217.882812 183.050781 218.898438 184.066406 218.898438 185.59375 L 218.898438 294.914062 L 234.152344 294.914062 L 234.152344 45.761719 L 211.273438 45.761719 C 210.253906 45.761719 209.238281 45.253906 208.730469 44.238281 C 208.222656 43.21875 208.730469 42.203125 209.238281 41.695312 L 249.917969 1.015625 C 250.933594 0 252.457031 0 253.476562 1.015625 L 294.152344 41.695312 C 294.660156 42.203125 295.171875 43.726562 294.660156 44.238281 C 294.152344 44.746094 293.136719 45.761719 292.117188 45.761719 L 269.238281 45.761719 L 269.238281 294.914062 L 297.203125 294.914062 C 298.730469 294.914062 299.746094 295.933594 299.746094 297.457031 C 299.746094 298.984375 299.238281 300 297.710938 300 Z M 239.238281 294.914062 L 264.660156 294.914062 L 264.660156 43.21875 C 264.660156 41.695312 265.679688 40.675781 267.203125 40.675781 L 286.527344 40.675781 L 251.949219 6.101562 L 217.371094 40.679688 L 236.695312 40.679688 C 238.21875 40.679688 239.238281 41.695312 239.238281 43.222656 Z M 188.898438 294.914062 L 213.8125 294.914062 L 213.8125 188.136719 L 188.898438 188.136719 Z M 137.542969 294.914062 L 162.964844 294.914062 L 162.964844 157.625 L 137.542969 157.625 Z M 86.695312 294.914062 L 112.117188 294.914062 L 112.117188 177.964844 L 86.695312 177.964844 Z M 35.847656 294.914062 L 61.269531 294.914062 L 61.269531 218.644531 L 35.847656 218.644531 Z M 68.898438 137.289062 C 31.269531 137.289062 0.253906 106.269531 0.253906 68.644531 C 0.253906 31.015625 31.269531 0 68.898438 0 C 106.527344 0 137.542969 31.015625 137.542969 68.644531 C 137.542969 106.269531 106.523438 137.289062 68.898438 137.289062 Z M 68.898438 5.085938 C 33.8125 5.085938 5.339844 33.558594 5.339844 68.644531 C 5.339844 103.730469 33.8125 132.203125 68.898438 132.203125 C 103.984375 132.203125 132.457031 103.730469 132.457031 68.644531 C 132.457031 33.558594 103.984375 5.085938 68.898438 5.085938 Z M 68.898438 106.78125 C 67.371094 106.78125 66.355469 105.761719 66.355469 104.238281 L 66.355469 101.695312 C 57.710938 100.675781 51.101562 93.050781 51.101562 83.898438 C 51.101562 82.371094 52.117188 81.355469 53.644531 81.355469 C 55.167969 81.355469 56.1875 82.371094 56.1875 83.898438 C 56.1875 91.015625 61.78125 96.609375 68.898438 96.609375 C 76.015625 96.609375 81.609375 91.015625 81.609375 83.898438 C 81.609375 76.777344 76.015625 71.1875 68.898438 71.1875 C 59.238281 71.1875 51.101562 63.050781 51.101562 53.390625 C 51.101562 44.238281 57.710938 37.117188 66.355469 35.59375 L 66.355469 33.050781 C 66.355469 31.523438 67.371094 30.507812 68.898438 30.507812 C 70.425781 30.507812 71.441406 31.523438 71.441406 33.050781 L 71.441406 35.59375 C 80.085938 36.609375 86.695312 44.238281 86.695312 53.390625 C 86.695312 54.914062 85.679688 55.933594 84.152344 55.933594 C 82.628906 55.933594 81.609375 54.914062 81.609375 53.390625 C 81.609375 46.269531 76.015625 40.675781 68.898438 40.675781 C 61.78125 40.675781 56.1875 46.269531 56.1875 53.390625 C 56.1875 60.507812 61.78125 66.101562 68.898438 66.101562 C 78.558594 66.101562 86.695312 74.238281 86.695312 83.898438 C 86.695312 93.050781 80.085938 100.167969 71.441406 101.695312 L 71.441406 104.238281 C 71.441406 105.761719 70.425781 106.78125 68.898438 106.78125 Z M 68.898438 106.78125 "/>
</g>
</svg>
