<?xml version="1.0" encoding="UTF-8"?>
<svg xmlns="http://www.w3.org/2000/svg" xmlns:xlink="http://www.w3.org/1999/xlink" width="300px" height="px" viewBox="0 0 300 300" version="1.1">
<defs>
<filter id="alpha" filterUnits="objectBoundingBox" x="0%" y="0%" width="100%" height="100%">
  <feColorMatrix type="matrix" in="SourceGraphic" values="0 0 0 0 1 0 0 0 0 1 0 0 0 0 1 0 0 0 1 0"/>
</filter>
<mask id="mask0">
  <g filter="url(#alpha)">
<rect x="0" y="0" width="300" height="300" style="fill:rgb(0%,0%,0%);fill-opacity:0.14902;stroke:none;"/>
  </g>
</mask>
<clipPath id="clip1">
  <rect x="0" y="0" width="300" height="300"/>
</clipPath>
<g id="surface5" clip-path="url(#clip1)">
<path style=" stroke:none;fill-rule:nonzero;fill:rgb(0%,0%,0%);fill-opacity:1;" d="M 46.875 281.25 C 46.875 286.425781 51.074219 290.625 56.25 290.625 L 243.75 290.625 C 248.925781 290.625 253.125 286.425781 253.125 281.25 L 253.125 262.5 L 46.875 262.5 Z M 46.875 281.25 "/>
<path style=" stroke:none;fill-rule:nonzero;fill:rgb(0%,0%,0%);fill-opacity:1;" d="M 243.75 121.875 L 56.25 121.875 C 51.074219 121.875 46.875 126.070312 46.875 131.25 L 46.875 150 L 253.125 150 L 253.125 131.25 C 253.125 126.070312 248.925781 121.875 243.75 121.875 Z M 243.75 121.875 "/>
</g>
</defs>
<g id="surface1">
<path style=" stroke:none;fill-rule:nonzero;fill:rgb(27.058824%,66.666667%,72.156863%);fill-opacity:1;" d="M 93.75 65.625 C 93.75 34.5625 118.9375 9.375 150 9.375 C 181.0625 9.375 206.25 34.5625 206.25 65.625 L 206.25 112.5 L 187.5 112.5 L 187.5 65.625 C 187.5 44.914062 170.710938 28.125 150 28.125 C 129.289062 28.125 112.5 44.914062 112.5 65.625 L 112.5 112.5 L 93.75 112.5 Z M 93.75 65.625 "/>
<path style=" stroke:none;fill-rule:nonzero;fill:rgb(97.647059%,92.156863%,69.803922%);fill-opacity:1;" d="M 46.875 281.25 C 46.875 286.425781 51.074219 290.625 56.25 290.625 L 243.75 290.625 C 248.925781 290.625 253.125 286.425781 253.125 281.25 L 253.125 262.5 L 46.875 262.5 Z M 46.875 281.25 "/>
<path style=" stroke:none;fill-rule:nonzero;fill:rgb(97.647059%,92.156863%,69.803922%);fill-opacity:1;" d="M 46.875 159.375 L 253.125 159.375 L 253.125 253.125 L 46.875 253.125 Z M 46.875 159.375 "/>
<path style=" stroke:none;fill-rule:nonzero;fill:rgb(97.647059%,92.156863%,69.803922%);fill-opacity:1;" d="M 243.75 121.875 L 56.25 121.875 C 51.074219 121.875 46.875 126.070312 46.875 131.25 L 46.875 150 L 253.125 150 L 253.125 131.25 C 253.125 126.070312 248.925781 121.875 243.75 121.875 Z M 243.75 121.875 "/>
<path style=" stroke:none;fill-rule:nonzero;fill:rgb(22.352941%,25.882353%,25.098039%);fill-opacity:1;" d="M 243.75 112.5 L 215.625 112.5 L 215.625 65.625 C 215.625 29.382812 186.242188 0 150 0 C 113.757812 0 84.375 29.382812 84.375 65.625 L 84.375 112.5 L 56.25 112.5 C 45.886719 112.5 37.5 120.886719 37.5 131.25 L 37.5 281.25 C 37.5 291.613281 45.886719 300 56.25 300 L 243.75 300 C 254.113281 300 262.5 291.613281 262.5 281.25 L 262.5 131.25 C 262.5 120.886719 254.113281 112.5 243.75 112.5 Z M 93.75 65.625 C 93.75 34.5625 118.9375 9.375 150 9.375 C 181.0625 9.375 206.25 34.5625 206.25 65.625 L 206.25 112.5 L 187.5 112.5 L 187.5 65.625 C 187.5 44.914062 170.710938 28.125 150 28.125 C 129.289062 28.125 112.5 44.914062 112.5 65.625 L 112.5 112.5 L 93.75 112.5 Z M 178.125 65.625 L 178.125 112.5 L 121.875 112.5 L 121.875 65.625 C 121.875 50.089844 134.46875 37.5 150 37.5 C 165.53125 37.5 178.125 50.089844 178.125 65.625 Z M 253.125 281.25 C 253.125 286.425781 248.925781 290.625 243.75 290.625 L 56.25 290.625 C 51.074219 290.625 46.875 286.425781 46.875 281.25 L 46.875 262.5 L 253.125 262.5 Z M 253.125 253.125 L 46.875 253.125 L 46.875 159.375 L 253.125 159.375 Z M 253.125 150 L 46.875 150 L 46.875 131.25 C 46.875 126.070312 51.074219 121.875 56.25 121.875 L 243.75 121.875 C 248.925781 121.875 253.125 126.070312 253.125 131.25 Z M 253.125 150 "/>
<path style=" stroke:none;fill-rule:nonzero;fill:rgb(22.352941%,25.882353%,25.098039%);fill-opacity:1;" d="M 135.9375 210.839844 L 135.9375 229.6875 C 135.9375 237.449219 142.234375 243.75 150 243.75 C 157.765625 243.75 164.0625 237.449219 164.0625 229.6875 L 164.0625 210.839844 C 169.730469 206.5625 173.4375 199.832031 173.4375 192.1875 C 173.4375 179.242188 162.945312 168.75 150 168.75 C 137.054688 168.75 126.5625 179.242188 126.5625 192.1875 C 126.5625 199.832031 130.269531 206.558594 135.9375 210.839844 Z M 150 178.125 C 157.765625 178.125 164.0625 184.414062 164.0625 192.1875 C 164.0625 198.304688 160.140625 203.445312 154.6875 205.386719 L 154.6875 229.6875 C 154.6875 232.28125 152.59375 234.375 150 234.375 C 147.40625 234.375 145.3125 232.28125 145.3125 229.6875 L 145.3125 205.386719 C 139.859375 203.445312 135.9375 198.300781 135.9375 192.1875 C 135.9375 184.414062 142.234375 178.125 150 178.125 Z M 150 178.125 "/>
<path style=" stroke:none;fill-rule:nonzero;fill:rgb(31.372549%,42.352941%,49.803922%);fill-opacity:1;" d="M 150 178.125 C 157.765625 178.125 164.0625 184.414062 164.0625 192.1875 C 164.0625 198.304688 160.140625 203.445312 154.6875 205.386719 L 154.6875 229.6875 C 154.6875 232.28125 152.59375 234.375 150 234.375 C 147.40625 234.375 145.3125 232.28125 145.3125 229.6875 L 145.3125 205.386719 C 139.859375 203.445312 135.9375 198.300781 135.9375 192.1875 C 135.9375 184.414062 142.234375 178.125 150 178.125 Z M 150 178.125 "/>
<use xlink:href="#surface5" mask="url(#mask0)"/>
</g>
</svg>
